<svg viewBox="0 0 487 371" xmlns="http://www.w3.org/2000/svg" fill-rule="evenodd" clip-rule="evenodd" stroke-linejoin="round" stroke-miterlimit="1.414">
    <path d="M486.429 4.79a4.792 4.792 0 0 0-4.79-4.79H5.219a4.792 4.792 0 0 0-4.79 4.79v360.429a4.792 4.792 0 0 0 4.79 4.79h476.42a4.792 4.792 0 0 0 4.79-4.79V4.79z" fill="#132d4f"/>
    <path d="M481.701 0l.061.002.062.002.061.002.061.004.061.004.061.005.06.006.061.006.06.008.059.008.06.008.059.01.059.01.059.011.059.011.116.026.115.028.115.031.113.034.112.036.11.039.11.041.108.045.106.046.106.05.104.051.102.055.101.056.1.059.098.061.096.064.095.065.093.068.092.07.089.072.088.075.086.076.084.078.082.081.081.082.078.084.076.086.075.088.072.09.07.091.068.093.066.095.063.096.061.098.059.1.057.101.054.102.051.104.05.106.046.106.045.109.041.109.039.111.037.111.033.113.031.115.028.115.026.116.011.059.011.059.01.059.01.059.009.06.008.059.007.061.006.06.006.06.005.061.004.061.004.061.003.061.002.062.001.061v360.553l-.001.062-.002.061-.003.061-.004.061-.004.061-.005.061-.006.06-.006.061-.007.06-.008.06-.009.059-.01.059-.01.059-.011.059-.011.059-.026.116-.028.116-.031.114-.033.113-.037.112-.039.11-.041.11-.045.108-.046.107-.05.105-.051.104-.054.103-.057.101-.059.099-.061.098-.063.096-.066.095-.068.093-.07.092-.072.089-.075.088-.076.086-.078.084-.081.083-.082.08-.084.078-.086.077-.088.074-.089.072-.092.07-.093.068-.095.066-.096.063-.098.061-.1.059-.101.057-.102.054-.104.052-.106.049-.106.047-.108.044-.11.041-.11.039-.112.037-.113.033-.115.031-.115.028-.116.026-.059.011-.059.011-.059.011-.059.009-.06.009-.059.008-.06.007-.061.006-.06.006-.061.005-.061.004-.061.004-.061.003-.062.002-.061.001H5.157l-.061-.001-.062-.002-.061-.003-.061-.004-.061-.004-.061-.005-.06-.006-.06-.006-.06-.007-.06-.008-.06-.009-.059-.009-.059-.011-.059-.011-.059-.011-.116-.026-.115-.028-.114-.031-.114-.033-.111-.037-.111-.039-.109-.041-.109-.044-.106-.047-.106-.049-.104-.052-.102-.054-.101-.057-.1-.059-.098-.061-.096-.063-.095-.066-.093-.068-.091-.07-.09-.072-.088-.074-.086-.077-.084-.078-.082-.08-.081-.083-.078-.084-.076-.086-.075-.088-.072-.089-.07-.092-.068-.093-.065-.095-.064-.096-.061-.098-.059-.099-.056-.101-.055-.103-.051-.104-.05-.105-.046-.107-.044-.108-.042-.11-.039-.11-.036-.112-.034-.113-.031-.114-.028-.116-.026-.116-.011-.059-.011-.059-.01-.059-.01-.059-.008-.059-.008-.06-.008-.06-.006-.061-.006-.06-.005-.061-.004-.061-.004-.061-.002-.061-.002-.061-.002-.062V4.728l.002-.061.002-.062.002-.061.004-.061.004-.061.005-.061.006-.06.006-.06.008-.061.008-.059.008-.06.01-.059.01-.059.011-.059.011-.059.026-.116.028-.115.031-.115.034-.113.036-.111.039-.111.042-.109.044-.109.046-.106.05-.106.051-.104.055-.102.056-.101.059-.1.061-.098.064-.096.065-.095.068-.093.07-.091.072-.09.075-.088.076-.086.078-.084.081-.082.082-.081.084-.078.086-.076.088-.075.09-.072.091-.07.093-.068.095-.065.096-.064.098-.061.1-.059.101-.056.102-.055.104-.051.106-.05.106-.046.109-.045.109-.041.111-.039.111-.036.114-.034.114-.031.115-.028.116-.026.059-.011.059-.011.059-.01.059-.01.06-.008.06-.008.06-.008.06-.006.06-.006.061-.005.061-.004.061-.004.061-.002.062-.002L5.157 0H481.701zM5.225 2h-.042l-.036.001-.036.001-.037.002-.036.002-.035.002-.035.003-.036.004-.035.003-.035.005-.035.004-.034.005-.035.006-.034.006-.034.006-.028.006-.074.016-.066.016-.067.018-.065.019-.064.021-.065.023-.063.024-.063.026-.062.027-.061.028-.061.031-.06.031-.057.032-.058.035-.059.036-.056.037-.055.038-.054.04-.053.04-.052.043-.052.043-.051.046-.049.045-.048.047-.047.048-.046.05-.045.051-.043.05-.042.052-.041.053-.04.055-.039.057-.036.055-.035.056-.036.061-.032.056-.032.061-.03.061-.027.058-.027.062-.027.066-.025.064-.022.062-.02.064-.02.065-.018.067-.016.067-.017.076-.005.028-.006.032-.006.032-.006.039-.005.033-.004.034-.005.033-.003.034-.004.041-.003.035-.002.035-.002.035-.002.035-.001.036-.001.037v360.502l.001.036.001.036.002.035.002.036.002.035.003.034.004.041.003.034.005.033.004.034.005.033.006.039.006.032.006.032.005.029.017.075.016.068.018.066.02.065.02.064.022.062.025.065.027.066.027.061.027.058.03.062.032.06.032.057.036.06.035.057.036.055.039.056.04.055.041.053.042.052.043.051.045.051.046.049.047.048.048.047.049.046.051.045.052.043.052.043.053.041.054.039.055.038.056.037.059.037.058.034.057.032.06.032.061.03.062.029.061.027.063.025.064.025.064.022.063.021.066.019.067.019.066.016.074.016.027.005.035.007.035.006.034.005.034.005.035.005.035.004.035.004.035.003.036.003.036.002.035.002.037.002.036.001.036.001H481.676l.036-.001.035-.001.037-.001.035-.002.036-.003.036-.003.035-.003.035-.004.034-.004.036-.005.035-.005.033-.005.035-.006.035-.007.027-.005.074-.016.067-.017.065-.017.067-.02.064-.021.063-.022.064-.025.063-.025.062-.027.061-.029.061-.03.059-.032.058-.032.059-.035.058-.036.055-.036.056-.039.055-.041.052-.039.053-.043.051-.043.05-.044.05-.047.05-.048.045-.047.046-.049.046-.051.041-.049.043-.054.043-.055.038-.053.037-.054.038-.057.037-.059.033-.056.033-.059.032-.06.029-.06.03-.063.027-.061.025-.063.025-.065.022-.062.021-.064.019-.065.018-.066.016-.068.017-.075.006-.029.006-.032.005-.032.005-.033.006-.039.005-.034.003-.033.005-.041.003-.034.003-.034.002-.029.002-.035.002-.042.001-.036.001-.036V4.754l-.001-.037-.001-.036-.002-.041-.002-.036-.002-.028-.003-.035-.003-.034-.005-.041-.003-.033-.005-.034-.006-.039-.005-.033-.005-.032-.006-.032-.006-.028-.017-.076-.016-.067-.018-.067-.019-.065-.021-.064-.022-.062-.025-.064-.025-.063-.027-.062-.03-.063-.029-.059-.032-.061-.033-.059-.033-.055-.037-.059-.038-.058-.037-.054-.038-.052-.043-.056-.043-.054-.041-.048-.046-.051-.046-.05-.045-.046-.05-.049-.05-.047-.05-.044-.052-.043-.052-.043-.051-.039-.056-.041-.056-.039-.055-.036-.057-.035-.06-.036-.058-.032-.059-.031-.061-.031-.061-.028-.062-.027-.063-.026-.063-.024-.064-.023-.065-.021-.066-.019-.065-.018-.067-.016-.074-.017-.028-.005-.034-.006-.034-.006-.034-.006-.035-.005-.036-.005-.034-.004-.035-.003-.036-.004-.035-.003-.035-.002-.036-.002-.037-.002-.035-.001-.036-.001H5.225z" fill="#9ac6ff"/>
    <circle cx="18.832" cy="17.37" r="5.724" fill="#fe5e56"/>
    <circle cx="37.925" cy="17.37" r="5.724" fill="#febc2e"/>
    <circle cx="57.017" cy="17.37" r="5.724" fill="#27c93f"/>
    <text x="231.17" y="23.326" font-family="'Overpass'" font-weight="300" font-size="16" fill="#fff">
        IDE
    </text>
    <g font-family="'Overpass Mono'" font-size="16">
        <text x="831.004" y="469.585" fill="#429ef5" transform="translate(-808.74 -414.031)">
            class
        </text>
        <text x="890.14" y="469.585" fill="#31d4b5" transform="translate(-808.74 -414.031)">
            User
        </text>
        <text x="939.42" y="469.585" fill="#429ef5" transform="translate(-808.74 -414.031)">
            extends
        </text>
        <text x="1018.27" y="469.585" fill="#31d4b5" transform="translate(-808.74 -414.031)">
            Model
        </text>
        <text x="1077.4" y="469.585" fill="#fff" transform="translate(-808.74 -414.031)">
            {
        </text>
        <text x="850.716" y="493.585" fill="#fff" transform="translate(-808.74 -414.031)">
            @
        </text>
        <text x="860.572" y="493.585" fill="#fde566" transform="translate(-808.74 -414.031)">
            prop
        </text>
        <text x="899.996" y="493.585" fill="#fff" transform="translate(-808.74 -414.031)">
            ({
        </text>
        <text x="870.428" y="517.585" fill="#8de4fb" transform="translate(-808.74 -414.031)">
            cast:
        </text>
        <text x="929.564" y="517.585" fill="#fff" transform="translate(-808.74 -414.031)">
            {
        </text>
        <text x="890.14" y="541.585" fill="#8de4fb" transform="translate(-808.74 -414.031)">
            handler:
        </text>
        <text x="978.844" y="541.585" fill="#f48e6c" transform="translate(-808.74 -414.031)">
            &apos;String&apos;
        </text>
        <text x="1057.69" y="541.585" fill="#fff" transform="translate(-808.74 -414.031)">
            ,
        </text>
        <text x="870.428" y="565.585" fill="#fff" transform="translate(-808.74 -414.031)">
            },
        </text>
        <text x="870.428" y="589.585" fill="#8de4fb" transform="translate(-808.74 -414.031)">
            validate:
        </text>
        <text x="968.988" y="589.585" fill="#fff" transform="translate(-808.74 -414.031)">
            [
        </text>
        <text x="890.14" y="613.585" fill="#fff" transform="translate(-808.74 -414.031)">
            {
        </text>
        <text x="909.852" y="613.585" fill="#8de4fb" transform="translate(-808.74 -414.031)">
            handler: isPresent
        </text>
        <text x="1087.26" y="613.585" fill="#fff" transform="translate(-808.74 -414.031)">
            ,
        </text>
        <text x="1106.97" y="613.585" fill="#8de4fb" transform="translate(-808.74 -414.031)">
            code:
        </text>
        <text x="1166.11" y="613.585" fill="#31d4b5" transform="translate(-808.74 -414.031)">
            422
        </text>
        <text x="1205.53" y="613.585" fill="#fff" transform="translate(-808.74 -414.031)">
            },
        </text>
        <text x="870.428" y="637.585" fill="#fff" transform="translate(-808.74 -414.031)">
            ],
        </text>
        <text x="870.428" y="661.585" fill="#8de4fb" transform="translate(-808.74 -414.031)">
            defaultValue:
        </text>
        <text x="1008.41" y="661.585" fill="#f48e6c" transform="translate(-808.74 -414.031)">
            &apos;John&apos;
        </text>
        <text x="1067.55" y="661.585" fill="#fff" transform="translate(-808.74 -414.031)">
            ,
        </text>
        <text x="850.716" y="685.585" fill="#fff" transform="translate(-808.74 -414.031)">
            })
        </text>
        <text x="850.716" y="709.585" fill="#429ef5" transform="translate(-808.74 -414.031)">
            public
        </text>
        <text x="919.708" y="709.585" fill="#8de4fb" transform="translate(-808.74 -414.031)">
            name
        </text>
        <text x="959.132" y="709.585" fill="#fff" transform="translate(-808.74 -414.031)">
            :
        </text>
        <text x="978.844" y="709.585" fill="#31d4b5" transform="translate(-808.74 -414.031)">
            string
        </text>
        <text x="1037.98" y="709.585" fill="#fff" transform="translate(-808.74 -414.031)">
            ;
        </text>
        <text x="831.004" y="733.585" fill="#fff" transform="translate(-808.74 -414.031)">
            }
        </text>
    </g>
</svg>
