<svg viewBox="0 0 487 371" xmlns="http://www.w3.org/2000/svg" fill-rule="evenodd" clip-rule="evenodd" stroke-linejoin="round" stroke-miterlimit="1.414">
    <path d="M486.429 4.79a4.792 4.792 0 0 0-4.79-4.79H5.219a4.792 4.792 0 0 0-4.79 4.79v360.429a4.792 4.792 0 0 0 4.79 4.79h476.42a4.792 4.792 0 0 0 4.79-4.79V4.79z" fill="#132d4f"/>
    <path d="M481.701 0l.061.002.062.002.061.002.061.004.061.004.061.005.06.006.061.006.06.008.059.008.06.008.059.01.059.01.059.011.059.011.116.026.115.028.115.031.113.034.112.036.11.039.11.041.108.045.106.046.106.05.104.051.102.055.101.056.1.059.098.061.096.064.095.065.093.068.092.07.089.072.088.075.086.076.084.078.082.081.081.082.078.084.076.086.075.088.072.09.07.091.068.093.066.095.063.096.061.098.059.1.057.101.054.102.051.104.05.106.046.106.045.109.041.109.039.111.037.111.033.113.031.115.028.115.026.116.011.059.011.059.01.059.01.059.009.06.008.059.007.061.006.06.006.06.005.061.004.061.004.061.003.061.002.062.001.061v360.553l-.001.062-.002.061-.003.061-.004.061-.004.061-.005.061-.006.06-.006.061-.007.06-.008.06-.009.059-.01.059-.01.059-.011.059-.011.059-.026.116-.028.116-.031.114-.033.113-.037.112-.039.11-.041.11-.045.108-.046.107-.05.105-.051.104-.054.103-.057.101-.059.099-.061.098-.063.096-.066.095-.068.093-.07.092-.072.089-.075.088-.076.086-.078.084-.081.083-.082.08-.084.078-.086.077-.088.074-.089.072-.092.07-.093.068-.095.066-.096.063-.098.061-.1.059-.101.057-.102.054-.104.052-.106.049-.106.047-.108.044-.11.041-.11.039-.112.037-.113.033-.115.031-.115.028-.116.026-.059.011-.059.011-.059.011-.059.009-.06.009-.059.008-.06.007-.061.006-.06.006-.061.005-.061.004-.061.004-.061.003-.062.002-.061.001H5.157l-.061-.001-.062-.002-.061-.003-.061-.004-.061-.004-.061-.005-.06-.006-.06-.006-.06-.007-.06-.008-.06-.009-.059-.009-.059-.011-.059-.011-.059-.011-.116-.026-.115-.028-.114-.031-.114-.033-.111-.037-.111-.039-.109-.041-.109-.044-.106-.047-.106-.049-.104-.052-.102-.054-.101-.057-.1-.059-.098-.061-.096-.063-.095-.066-.093-.068-.091-.07-.09-.072-.088-.074-.086-.077-.084-.078-.082-.08-.081-.083-.078-.084-.076-.086-.075-.088-.072-.089-.07-.092-.068-.093-.065-.095-.064-.096-.061-.098-.059-.099-.056-.101-.055-.103-.051-.104-.05-.105-.046-.107-.044-.108-.042-.11-.039-.11-.036-.112-.034-.113-.031-.114-.028-.116-.026-.116-.011-.059-.011-.059-.01-.059-.01-.059-.008-.059-.008-.06-.008-.06-.006-.061-.006-.06-.005-.061-.004-.061-.004-.061-.002-.061-.002-.061-.002-.062V4.728l.002-.061.002-.062.002-.061.004-.061.004-.061.005-.061.006-.06.006-.06.008-.061.008-.059.008-.06.01-.059.01-.059.011-.059.011-.059.026-.116.028-.115.031-.115.034-.113.036-.111.039-.111.042-.109.044-.109.046-.106.05-.106.051-.104.055-.102.056-.101.059-.1.061-.098.064-.096.065-.095.068-.093.07-.091.072-.09.075-.088.076-.086.078-.084.081-.082.082-.081.084-.078.086-.076.088-.075.09-.072.091-.07.093-.068.095-.065.096-.064.098-.061.1-.059.101-.056.102-.055.104-.051.106-.05.106-.046.109-.045.109-.041.111-.039.111-.036.114-.034.114-.031.115-.028.116-.026.059-.011.059-.011.059-.01.059-.01.06-.008.06-.008.06-.008.06-.006.06-.006.061-.005.061-.004.061-.004.061-.002.062-.002L5.157 0H481.701zM5.225 2h-.042l-.036.001-.036.001-.037.002-.036.002-.035.002-.035.003-.036.004-.035.003-.035.005-.035.004-.034.005-.035.006-.034.006-.034.006-.028.006-.074.016-.066.016-.067.018-.065.019-.064.021-.065.023-.063.024-.063.026-.062.027-.061.028-.061.031-.06.031-.057.032-.058.035-.059.036-.056.037-.055.038-.054.04-.053.04-.052.043-.052.043-.051.046-.049.045-.048.047-.047.048-.046.05-.045.051-.043.05-.042.052-.041.053-.04.055-.039.057-.036.055-.035.056-.036.061-.032.056-.032.061-.03.061-.027.058-.027.062-.027.066-.025.064-.022.062-.02.064-.02.065-.018.067-.016.067-.017.076-.005.028-.006.032-.006.032-.006.039-.005.033-.004.034-.005.033-.003.034-.004.041-.003.035-.002.035-.002.035-.002.035-.001.036-.001.037v360.502l.001.036.001.036.002.035.002.036.002.035.003.034.004.041.003.034.005.033.004.034.005.033.006.039.006.032.006.032.005.029.017.075.016.068.018.066.02.065.02.064.022.062.025.065.027.066.027.061.027.058.03.062.032.06.032.057.036.06.035.057.036.055.039.056.04.055.041.053.042.052.043.051.045.051.046.049.047.048.048.047.049.046.051.045.052.043.052.043.053.041.054.039.055.038.056.037.059.037.058.034.057.032.06.032.061.03.062.029.061.027.063.025.064.025.064.022.063.021.066.019.067.019.066.016.074.016.027.005.035.007.035.006.034.005.034.005.035.005.035.004.035.004.035.003.036.003.036.002.035.002.037.002.036.001.036.001H481.675l.037-.001.036-.001.036-.001.035-.002.036-.003.036-.003.034-.003.036-.004.035-.004.036-.005.034-.005.032-.005.036-.006.036-.007.027-.005.072-.016.066-.016.068-.019.065-.019.065-.021.064-.023.062-.023.064-.026.063-.028.06-.028.06-.03.061-.032.059-.033.058-.034.057-.036.054-.035.055-.039.055-.04.056-.043.051-.041.049-.042.053-.046.049-.046.048-.047.05-.051.043-.046.042-.048.048-.056.04-.05.039-.051.042-.057.04-.059.037-.055.032-.051.037-.063.033-.059.029-.056.031-.062.03-.063.028-.064.025-.06.023-.062.022-.062.02-.064.022-.071.018-.067.016-.067.014-.063.005-.025.008-.045.008-.045.005-.033.003-.02.005-.033.005-.047.004-.034.002-.021.004-.047.002-.035.002-.036.002-.035.001-.036.001-.036V4.754l-.001-.037-.001-.035-.002-.036-.002-.035-.002-.035-.004-.048-.002-.021-.004-.034-.005-.047-.005-.033-.003-.02-.005-.033-.008-.045-.008-.045-.005-.025-.014-.063-.016-.067-.018-.067-.022-.071-.02-.064-.022-.062-.023-.061-.025-.061-.028-.064-.03-.063-.031-.062-.029-.055-.033-.059-.037-.063-.032-.052-.037-.055-.04-.059-.042-.057-.039-.051-.04-.05-.048-.056-.042-.047-.043-.047-.05-.051-.048-.047-.049-.045-.053-.047-.05-.042-.051-.042-.054-.041-.056-.041-.056-.039-.053-.035-.057-.035-.058-.035-.059-.033-.062-.032-.059-.03-.06-.028-.063-.027-.064-.026-.061-.024-.065-.023-.065-.021-.065-.019-.068-.018-.066-.017-.072-.015-.027-.006-.036-.006-.035-.006-.033-.006-.034-.005-.036-.004-.035-.005-.036-.004-.035-.003-.035-.003-.035-.002-.036-.002-.036-.002-.036-.001-.037-.001H5.225z" fill="#9ac6ff"/>
    <text x="231.17" y="23.326" font-family="'Overpass-Light','Overpass'" font-weight="300" font-size="16" fill="#fff">
        IDE
    </text>
    <circle cx="19.034" cy="17.37" r="5.724" fill="#fe5e56"/>
    <circle cx="38.127" cy="17.37" r="5.724" fill="#febc2e"/>
    <circle cx="57.219" cy="17.37" r="5.724" fill="#27c93f"/>
    <g font-family="'Overpass Mono'" font-size="16">
        <text x="219.439" y="480.516" fill="#429ef5" transform="translate(-190.22 -424.962)">
            const
        </text>
        <text x="278.575" y="480.516" fill="#8de4fb" transform="translate(-190.22 -424.962)">
            user
        </text>
        <text x="327.855" y="480.516" fill="#fff" transform="translate(-190.22 -424.962)">
            =
        </text>
        <text x="347.567" y="480.516" fill="#429ef5" transform="translate(-190.22 -424.962)">
            new
        </text>
        <text x="386.991" y="480.516" fill="#31d4b5" transform="translate(-190.22 -424.962)">
            User
        </text>
        <text x="426.415" y="480.516" fill="#fff" transform="translate(-190.22 -424.962)">
            ({
        </text>
        <text x="239.151" y="504.516" fill="#8de4fb" transform="translate(-190.22 -424.962)">
            name:
        </text>
        <text x="298.287" y="504.516" fill="#f48e6c" transform="translate(-190.22 -424.962)">
            &apos;Bob&apos;
        </text>
        <text x="347.567" y="504.516" fill="#fff" transform="translate(-190.22 -424.962)">
            ,
        </text>
        <text x="219.439" y="528.516" fill="#fff" transform="translate(-190.22 -424.962)">
            });
        </text>
        <text x="219.439" y="552.516" fill="#e488d2" transform="translate(-190.22 -424.962)">
            try
        </text>
        <text x="258.863" y="552.516" fill="#fff" transform="translate(-190.22 -424.962)">
            {
        </text>
        <text x="239.151" y="576.516" fill="#e488d2" transform="translate(-190.22 -424.962)">
            await
        </text>
        <text x="298.287" y="576.516" fill="#8de4fb" transform="translate(-190.22 -424.962)">
            user
        </text>
        <text x="337.711" y="576.516" fill="#fff" transform="translate(-190.22 -424.962)">
            .
        </text>
        <text x="347.567" y="576.516" fill="#fde566" transform="translate(-190.22 -424.962)">
            validate
        </text>
        <text x="426.415" y="576.516" fill="#fff" transform="translate(-190.22 -424.962)">
            ();
        </text>
        <text x="219.439" y="600.516" fill="#fff" transform="translate(-190.22 -424.962)">
            }
        </text>
        <text x="239.151" y="600.516" fill="#e488d2" transform="translate(-190.22 -424.962)">
            catch
        </text>
        <text x="298.287" y="600.516" fill="#fff" transform="translate(-190.22 -424.962)">
            (
        </text>
        <text x="308.143" y="600.516" fill="#8de4fb" transform="translate(-190.22 -424.962)">
            e
        </text>
        <text x="317.999" y="600.516" fill="#fff" transform="translate(-190.22 -424.962)">
            ) {
        </text>
        <text x="239.151" y="624.516" fill="#e488d2" transform="translate(-190.22 -424.962)">
            await
        </text>
        <text x="298.287" y="624.516" fill="#8de4fb" transform="translate(-190.22 -424.962)">
            user
        </text>
        <text x="337.711" y="624.516" fill="#fff" transform="translate(-190.22 -424.962)">
            .
        </text>
        <text x="347.567" y="624.516" fill="#fde566" transform="translate(-190.22 -424.962)">
            handle
        </text>
        <text x="406.703" y="624.516" fill="#fff" transform="translate(-190.22 -424.962)">
            (
        </text>
        <text x="416.559" y="624.516" fill="#8de4fb" transform="translate(-190.22 -424.962)">
            e
        </text>
        <text x="426.415" y="624.516" fill="#fff" transform="translate(-190.22 -424.962)">
            );
        </text>
        <text x="219.439" y="648.516" fill="#fff" transform="translate(-190.22 -424.962)">
            }
        </text>
        <text x="219.439" y="672.516" fill="#e488d2" transform="translate(-190.22 -424.962)">
            if
        </text>
        <text x="249.007" y="672.516" fill="#fff" transform="translate(-190.22 -424.962)">
            (
        </text>
        <text x="258.863" y="672.516" fill="#8de4fb" transform="translate(-190.22 -424.962)">
            user
        </text>
        <text x="298.287" y="672.516" fill="#fff" transform="translate(-190.22 -424.962)">
            .
        </text>
        <text x="308.143" y="672.516" fill="#fde566" transform="translate(-190.22 -424.962)">
            isValid
        </text>
        <text x="377.135" y="672.516" fill="#fff" transform="translate(-190.22 -424.962)">
            ()) {
        </text>
        <text x="239.151" y="696.516" fill="#e488d2" transform="translate(-190.22 -424.962)">
            return
        </text>
        <text x="308.143" y="696.516" fill="#8de4fb" transform="translate(-190.22 -424.962)">
            user
        </text>
        <text x="347.567" y="696.516" fill="#fff" transform="translate(-190.22 -424.962)">
            .
        </text>
        <text x="357.423" y="696.516" fill="#fde566" transform="translate(-190.22 -424.962)">
            serialize
        </text>
        <text x="446.127" y="696.516" fill="#fff" transform="translate(-190.22 -424.962)">
            ();
        </text>
        <text x="219.439" y="720.516" fill="#fff" transform="translate(-190.22 -424.962)">
            }
        </text>
        <text x="239.151" y="720.516" fill="#e488d2" transform="translate(-190.22 -424.962)">
            else
        </text>
        <text x="288.431" y="720.516" fill="#fff" transform="translate(-190.22 -424.962)">
            {
        </text>
        <text x="239.151" y="744.516" fill="#e488d2" transform="translate(-190.22 -424.962)">
            throw
        </text>
        <text x="298.287" y="744.516" fill="#8de4fb" transform="translate(-190.22 -424.962)">
            user
        </text>
        <text x="337.711" y="744.516" fill="#fff" transform="translate(-190.22 -424.962)">
            .
        </text>
        <text x="347.567" y="744.516" fill="#fde566" transform="translate(-190.22 -424.962)">
            collectErrors
        </text>
        <text x="475.695" y="744.516" fill="#fff" transform="translate(-190.22 -424.962)">
            ();
        </text>
        <text x="219.439" y="768.516" fill="#fff" transform="translate(-190.22 -424.962)">
            }
        </text>
    </g>
</svg>
