<svg width="165" height="36" viewBox="0 0 165 36" xmlns="http://www.w3.org/2000/svg" fill-rule="evenodd" clip-rule="evenodd" stroke-linejoin="round" stroke-miterlimit="1.414">
    <g fill="#fff" fill-rule="nonzero">
        <path d="M72.953 14.96c0-2.691-.635-7.102-5.794-7.102-3.065 0-5.606 1.271-6.989 3.402-.561-1.757-2.093-3.402-5.308-3.402-3.326 0-5.831 1.159-7.214 3.289V8.232h-6.391v19.661h7.102V16.866c.598-1.644 2.093-2.803 3.214-2.803 1.084 0 1.981.822 1.981 2.766v11.064h7.102V16.866c.598-1.644 2.093-2.803 3.214-2.803 1.084 0 1.981.822 1.981 2.766v11.064h7.102V14.96zM86.072 28.266c7.027 0 10.765-4.821 10.765-10.204 0-5.419-3.738-10.204-10.765-10.204-7.026 0-10.764 4.785-10.764 10.204 0 5.383 3.738 10.204 10.764 10.204zm-3.476-10.204c0-2.616 1.458-4.223 3.476-4.223 2.019 0 3.477 1.607 3.477 4.223 0 2.617-1.458 4.224-3.477 4.224-2.018 0-3.476-1.607-3.476-4.224zM119.114 14.96c0-2.691-.635-7.102-5.98-7.102-3.402 0-6.018 1.159-7.401 3.289V8.232h-6.391v19.661h7.101V16.866c.636-1.644 2.206-2.803 3.402-2.803 1.158 0 2.168.822 2.168 2.766v11.064h7.101V14.96zM133.467 28.266c5.233 0 8.821-4.597 8.821-10.092 0-5.195-3.887-10.092-9.269-10.092-2.953 0-5.682 1.682-7.252 4.112V8.419h-2.28v27.435h2.542V23.856c1.533 2.504 4.149 4.41 7.438 4.41zm-.71-2.242c-2.915 0-5.569-2.131-6.728-4.897v-5.98c.411-2.617 3.85-4.822 6.392-4.822 4.074 0 7.251 3.663 7.251 7.849 0 3.962-2.729 7.85-6.915 7.85zM154.885 28.266c5.606 0 9.68-4.634 9.68-10.054 0-5.457-4.111-10.13-9.68-10.13-5.57 0-9.681 4.673-9.681 10.13 0 5.42 3.999 10.054 9.681 10.054zm-7.065-10.017c0-4.373 3.177-7.924 7.065-7.924 3.849 0 7.064 3.514 7.064 7.849 0 4.336-3.215 7.85-7.102 7.85-3.887 0-7.027-3.439-7.027-7.775z"/>
    </g>
    <path d="M24.037 4.553c5.464 5.464 5.464 14.335 0 19.799-5.464 5.464-14.336 5.464-19.8 0s-5.464-14.335 0-19.799c5.464-5.464 14.336-5.464 19.8 0z" fill="#ffe566"/>
    <path d="M4.237 4.553c-5.468 5.467-5.468 14.332 0 19.799 5.468 5.468 14.332 5.468 19.8 0l-9.9-9.9-9.9-9.899z" fill="#fe5e56"/>
    <path d="M19.087 9.503a7.002 7.002 0 0 1 0 9.899 7.004 7.004 0 0 1-9.9 0 7.002 7.002 0 0 1 0-9.899 7.004 7.004 0 0 1 9.9 0z" fill="#b671e7"/>
</svg>
