<?xml version="1.0" encoding="UTF-8" standalone="no"?><!DOCTYPE svg PUBLIC "-//W3C//DTD SVG 1.1//EN" "http://www.w3.org/Graphics/SVG/1.1/DTD/svg11.dtd"><svg width="100%" height="100%" viewBox="0 0 224 29" version="1.1" xmlns="http://www.w3.org/2000/svg" xmlns:xlink="http://www.w3.org/1999/xlink" xml:space="preserve" xmlns:serif="http://www.serif.com/" style="fill-rule:evenodd;clip-rule:evenodd;stroke-linejoin:round;stroke-miterlimit:1.41421;"><g><g><path d="M53.096,8.48c-0.266,-0.038 -0.683,-0.038 -1.139,-0.038c-2.542,0 -4.932,2.087 -6.298,4.857l0,-4.743l-2.429,0l0,19.768l2.581,0l0,-12.293c1.062,-3.188 3.832,-5.085 7.285,-5.199l0,-2.352Z" style="fill:#fff;fill-rule:nonzero;"/><path d="M61.405,28.704c2.846,0 5.957,-1.366 7.665,-3.681l0.076,1.556c0.076,1.214 1.062,1.821 2.087,1.821c0.265,0 0.607,-0.038 1.024,-0.076l0,-2.276c-0.645,0 -0.911,-0.342 -0.911,-1.063l0,-8.917c0,-4.894 -3.073,-7.854 -7.854,-7.854c-2.618,0 -5.008,0.873 -7.551,2.58l0.911,1.708c2.163,-1.518 4.288,-2.353 6.374,-2.353c3.377,0 5.54,2.201 5.54,5.692l0,1.783c-1.631,-0.645 -3.832,-1.024 -5.805,-1.024c-4.933,0 -8.348,2.39 -8.348,6.071c0,3.263 2.732,6.033 6.792,6.033Zm0.645,-1.973c-3.301,0 -4.932,-2.201 -4.932,-4.288c0,-2.618 2.542,-4.212 6.222,-4.212c1.784,0 3.719,0.38 5.426,1.025l0,3.225c0,0.455 -0.303,1.024 -0.645,1.48c-1.29,1.707 -3.794,2.77 -6.071,2.77Z" style="fill:#fff;fill-rule:nonzero;"/><path d="M92.32,25.668l-3.756,-9.03l3.339,-8.044l-2.201,0l-2.542,6.45l-2.58,-6.45l-2.201,0l3.377,8.044l-3.757,9.03l-7.209,-17.112l-2.466,0l8.461,19.768l2.163,0l4.212,-10.093l4.211,10.093l2.163,0l8.462,-19.768l-2.505,0l-7.171,17.112Z" style="fill:#fff;fill-rule:nonzero;"/><path d="M136.392,15.196c0,-2.732 -0.645,-7.209 -5.881,-7.209c-3.112,0 -5.692,1.29 -7.096,3.452c-0.569,-1.783 -2.124,-3.452 -5.387,-3.452c-3.377,0 -5.92,1.176 -7.324,3.339l0,-2.96l-6.488,0l0,19.958l7.209,0l0,-11.193c0.607,-1.67 2.125,-2.846 3.264,-2.846c1.1,0 2.011,0.835 2.011,2.808l0,11.231l7.209,0l0,-11.193c0.607,-1.67 2.125,-2.846 3.263,-2.846c1.1,0 2.011,0.835 2.011,2.808l0,11.231l7.209,0l0,-13.128Z" style="fill:#fff;fill-rule:nonzero;"/><path d="M149.71,28.704c7.133,0 10.928,-4.895 10.928,-10.359c0,-5.502 -3.795,-10.358 -10.928,-10.358c-7.133,0 -10.928,4.856 -10.928,10.358c0,5.464 3.795,10.359 10.928,10.359Zm-3.529,-10.359c0,-2.656 1.48,-4.288 3.529,-4.288c2.049,0 3.529,1.632 3.529,4.288c0,2.656 -1.48,4.288 -3.529,4.288c-2.049,0 -3.529,-1.632 -3.529,-4.288Z" style="fill:#fff;fill-rule:nonzero;"/><path d="M171.527,28.704c2.619,0 5.123,-1.063 6.489,-3.491l0.152,0.721c0.379,1.859 1.821,2.77 4.249,2.77c0.873,0 1.973,-0.114 3.415,-0.38l0,-6.071c-1.328,-0.076 -1.745,-0.531 -1.745,-1.897l0,-19.73l-7.21,0l0,10.7c-1.138,-2.087 -3.452,-3.339 -6.033,-3.339c-5.122,0 -8.726,4.439 -8.726,10.32c0,6.109 3.908,10.397 9.409,10.397Zm1.974,-6.071c-2.353,0 -3.947,-1.67 -3.947,-4.174c0,-2.428 1.556,-4.402 3.643,-4.402c1.518,0 3.035,1.215 3.718,2.96l0,3.567c-0.948,1.366 -2.049,2.049 -3.414,2.049Z" style="fill:#fff;fill-rule:nonzero;"/><path d="M198.505,28.704c4.857,0 8.31,-2.239 9.941,-5.426l-6.109,-1.746c-0.455,1.252 -2.049,2.011 -3.604,2.011c-1.67,0 -3.339,-0.872 -3.491,-2.997l14.001,0c0.114,-0.607 0.19,-1.442 0.19,-2.201c0,-5.502 -3.795,-10.358 -10.928,-10.358c-7.133,0 -10.928,4.856 -10.928,10.624c0,5.35 3.909,10.093 10.928,10.093Zm-3.415,-12.484c0.228,-1.935 1.48,-3.111 3.301,-3.111c1.822,0 3.074,1.176 3.301,3.111l-6.602,0Z" style="fill:#fff;fill-rule:nonzero;"/><path d="M211.709,22.936c0,3.719 2.163,5.768 5.995,5.768c1.898,0 4.25,-0.494 5.957,-1.291l-0.91,-5.805c-0.607,0.342 -1.366,0.569 -1.973,0.569c-1.214,0 -1.859,-0.796 -1.859,-2.276l0,-19.275l-7.21,0l0,22.31Z" style="fill:#fff;fill-rule:nonzero;"/></g><g><circle cx="6.756" cy="6.414" r="5.789" style="fill:#b671e7;"/><circle cx="6.756" cy="22.844" r="5.789" style="fill:#fe5e56;"/><circle cx="23.186" cy="6.414" r="5.789" style="fill:#ffe566;"/><circle cx="23.186" cy="22.844" r="5.789" style="fill:#3bd4b5;"/></g></g></svg>