<svg width="224" height="29" viewBox="0 0 224 29" xmlns="http://www.w3.org/2000/svg" fill-rule="evenodd" clip-rule="evenodd" stroke-linejoin="round" stroke-miterlimit="1.414">
    <g fill="#fff" fill-rule="nonzero">
        <path d="M53.096 8.48c-.266-.038-.683-.038-1.139-.038-2.542 0-4.932 2.087-6.298 4.857V8.556H43.23v19.768h2.581V16.031c1.062-3.188 3.832-5.085 7.285-5.199V8.48zM61.405 28.704c2.846 0 5.957-1.366 7.665-3.681l.076 1.556c.076 1.214 1.062 1.821 2.087 1.821.265 0 .607-.038 1.024-.076v-2.276c-.645 0-.911-.342-.911-1.063v-8.917c0-4.894-3.073-7.854-7.854-7.854-2.618 0-5.008.873-7.551 2.58l.911 1.708c2.163-1.518 4.288-2.353 6.374-2.353 3.377 0 5.54 2.201 5.54 5.692v1.783c-1.631-.645-3.832-1.024-5.805-1.024-4.933 0-8.348 2.39-8.348 6.071 0 3.263 2.732 6.033 6.792 6.033zm.645-1.973c-3.301 0-4.932-2.201-4.932-4.288 0-2.618 2.542-4.212 6.222-4.212 1.784 0 3.719.38 5.426 1.025v3.225c0 .455-.303 1.024-.645 1.48-1.29 1.707-3.794 2.77-6.071 2.77zM92.32 25.668l-3.756-9.03 3.339-8.044h-2.201l-2.542 6.45-2.58-6.45h-2.201l3.377 8.044-3.757 9.03L74.79 8.556h-2.466l8.461 19.768h2.163l4.212-10.093 4.211 10.093h2.163l8.462-19.768h-2.505L92.32 25.668zM136.392 15.196c0-2.732-.645-7.209-5.881-7.209-3.112 0-5.692 1.29-7.096 3.452-.569-1.783-2.124-3.452-5.387-3.452-3.377 0-5.92 1.176-7.324 3.339v-2.96h-6.488v19.958h7.209V17.131c.607-1.67 2.125-2.846 3.264-2.846 1.1 0 2.011.835 2.011 2.808v11.231h7.209V17.131c.607-1.67 2.125-2.846 3.263-2.846 1.1 0 2.011.835 2.011 2.808v11.231h7.209V15.196zM149.71 28.704c7.133 0 10.928-4.895 10.928-10.359 0-5.502-3.795-10.358-10.928-10.358-7.133 0-10.928 4.856-10.928 10.358 0 5.464 3.795 10.359 10.928 10.359zm-3.529-10.359c0-2.656 1.48-4.288 3.529-4.288s3.529 1.632 3.529 4.288c0 2.656-1.48 4.288-3.529 4.288s-3.529-1.632-3.529-4.288zM171.527 28.704c2.619 0 5.123-1.063 6.489-3.491l.152.721c.379 1.859 1.821 2.77 4.249 2.77.873 0 1.973-.114 3.415-.38v-6.071c-1.328-.076-1.745-.531-1.745-1.897V.626h-7.21v10.7c-1.138-2.087-3.452-3.339-6.033-3.339-5.122 0-8.726 4.439-8.726 10.32 0 6.109 3.908 10.397 9.409 10.397zm1.974-6.071c-2.353 0-3.947-1.67-3.947-4.174 0-2.428 1.556-4.402 3.643-4.402 1.518 0 3.035 1.215 3.718 2.96v3.567c-.948 1.366-2.049 2.049-3.414 2.049zM198.505 28.704c4.857 0 8.31-2.239 9.941-5.426l-6.109-1.746c-.455 1.252-2.049 2.011-3.604 2.011-1.67 0-3.339-.872-3.491-2.997h14.001c.114-.607.19-1.442.19-2.201 0-5.502-3.795-10.358-10.928-10.358-7.133 0-10.928 4.856-10.928 10.624 0 5.35 3.909 10.093 10.928 10.093zM195.09 16.22c.228-1.935 1.48-3.111 3.301-3.111 1.822 0 3.074 1.176 3.301 3.111h-6.602zM211.709 22.936c0 3.719 2.163 5.768 5.995 5.768 1.898 0 4.25-.494 5.957-1.291l-.91-5.805c-.607.342-1.366.569-1.973.569-1.214 0-1.859-.796-1.859-2.276V.626h-7.21v22.31z"/>
    </g>
    <circle cx="6.756" cy="6.414" r="5.789" fill="#b671e7"/>
    <circle cx="6.756" cy="22.844" r="5.789" fill="#fe5e56"/>
    <circle cx="23.186" cy="6.414" r="5.789" fill="#ffe566"/>
    <circle cx="23.186" cy="22.844" r="5.789" fill="#3bd4b5"/>
</svg>
